<svg width="859" height="859" viewBox="0 0 859 859" fill="none" xmlns="http://www.w3.org/2000/svg">
<path d="M166.646 674.057C310.958 747.845 544.915 747.845 689.227 674.057C833.539 600.269 833.539 480.662 689.227 406.874C544.915 333.086 310.941 333 166.646 406.874C22.3512 480.748 22.334 600.286 166.646 674.057Z" fill="#F5F5F5"/>
<path d="M697.972 640.436C660.571 660.777 599.926 660.777 562.525 640.436C525.124 620.095 525.124 587.178 562.525 566.82C599.926 546.462 660.571 546.496 697.972 566.82C735.373 587.144 735.304 620.198 697.972 640.436Z" fill="#E6E6E6"/>
<path d="M337.14 591.284C444.528 591.284 531.584 543.964 531.584 485.593C531.584 427.221 444.528 379.901 337.14 379.901C229.752 379.901 142.697 427.221 142.697 485.593C142.697 543.964 229.752 591.284 337.14 591.284Z" fill="#E6E6E6"/>
<path d="M647.583 433.589L629.836 423.453C629.836 423.453 621.246 376.517 627.688 336.161C636.639 279.467 675.26 259.882 689.296 265.517C703.332 271.152 706.613 287.954 681.273 320.733C666.326 340.164 647.102 380.949 647.583 433.589Z" fill="#F8846B"/>
<g opacity="0.1">
<path opacity="0.1" d="M647.583 433.589L629.836 423.453C629.836 423.453 621.246 376.517 627.688 336.161C636.639 279.467 675.26 259.882 689.296 265.517C703.332 271.152 706.613 287.954 681.273 320.733C666.326 340.164 647.102 380.949 647.583 433.589Z" fill="black"/>
</g>
<path d="M641.158 411.066H641.329C641.659 411.015 641.957 410.838 642.159 410.572C642.361 410.306 642.451 409.972 642.412 409.64C635.076 356.537 656.431 298.348 680.414 274.897C680.629 274.663 680.748 274.356 680.748 274.038C680.748 273.72 680.629 273.414 680.414 273.179C680.171 272.947 679.848 272.818 679.512 272.818C679.176 272.818 678.853 272.947 678.61 273.179C654.18 297.059 632.413 356.193 639.869 410.069C639.933 410.36 640.097 410.619 640.333 410.801C640.568 410.983 640.86 411.077 641.158 411.066Z" fill="white"/>
<path d="M696.855 462.142C699.656 463.757 705.445 460.235 707.661 458.706C711.467 456.095 714.533 452.544 716.561 448.398C718.845 443.727 719.625 438.464 718.794 433.331C718.348 430.615 717.711 427.934 716.887 425.308C716.148 422.714 715.392 420.154 714.654 417.543C713.746 415.03 713.355 412.359 713.503 409.692C714.19 404.366 718.914 400.638 723.209 397.425C727.951 393.869 732.899 389.179 732.865 382.77C732.865 377.84 730.288 373.253 727.229 369.37C724.171 365.487 720.529 362.069 717.763 357.963C715.588 355.11 714.449 351.602 714.533 348.015C714.831 345.816 715.573 343.699 716.715 341.796C718.966 337.639 721.955 333.807 723.587 329.323C725.219 324.84 724.927 319.273 721.423 316.078C718.554 313.449 714.293 313.071 710.41 313.329C706.752 313.765 703.234 314.996 700.102 316.937C689.932 322.589 684.125 334.632 673.336 338.979C669.178 340.697 664.626 341.023 660.279 342.174C655.932 343.325 651.517 345.61 649.507 349.544C645.556 357.464 652.943 367.205 650.126 375.606C647.652 383.045 640.436 385.914 636.382 392.58C634.734 395.538 634.066 398.943 634.475 402.304C634.839 407.988 636.23 413.558 638.581 418.745C641.215 423.899 644.23 428.849 647.6 433.555C647.686 433.761 696.426 461.798 696.855 462.142Z" fill="#F8846B"/>
<path d="M668.027 446.68C668.366 446.667 668.686 446.52 668.917 446.273C669.149 446.025 669.273 445.696 669.264 445.357C667.168 395.089 690.859 339.597 708.074 323.482C708.292 323.25 708.414 322.942 708.414 322.623C708.414 322.304 708.292 321.997 708.074 321.764C707.839 321.549 707.533 321.43 707.215 321.43C706.897 321.43 706.59 321.549 706.356 321.764C688.798 338.223 664.625 394.625 666.739 445.598C666.788 445.903 666.945 446.18 667.182 446.378C667.418 446.577 667.718 446.684 668.027 446.68Z" fill="white"/>
<path d="M675.569 387.306C675.689 387.323 675.81 387.323 675.93 387.306C692.079 382.307 712.214 381.43 712.403 381.43C712.57 381.424 712.734 381.384 712.886 381.314C713.038 381.244 713.174 381.145 713.287 381.022C713.401 380.899 713.489 380.755 713.546 380.598C713.604 380.441 713.63 380.275 713.623 380.108C713.621 379.939 713.585 379.773 713.516 379.619C713.448 379.465 713.349 379.327 713.225 379.212C713.101 379.098 712.955 379.01 712.796 378.955C712.637 378.899 712.468 378.876 712.3 378.888C712.094 378.888 691.684 379.798 675.191 384.884C674.909 384.98 674.67 385.173 674.515 385.428C674.361 385.683 674.301 385.984 674.346 386.279C674.391 386.573 674.538 386.843 674.762 387.04C674.985 387.237 675.271 387.35 675.569 387.358V387.306Z" fill="white"/>
<path d="M713.245 583.691L703.521 544.4H654.678C638.511 541.617 621.986 541.617 605.818 544.4H556.959L547.235 583.691C543.524 598.311 551.427 613.721 570.909 624.923C603.671 643.821 656.809 643.821 689.554 624.923C709.053 613.721 716.939 598.311 713.245 583.691Z" fill="#F8846B"/>
<path opacity="0.1" d="M713.245 583.691L703.521 544.4H654.678C638.511 541.617 621.986 541.617 605.818 544.4H556.959L547.235 583.691C543.524 598.311 551.427 613.721 570.909 624.923C603.671 643.821 656.809 643.821 689.554 624.923C709.053 613.721 716.939 598.311 713.245 583.691Z" fill="black"/>
<path d="M630.248 593.191C671.133 593.191 704.277 574.054 704.277 550.447C704.277 526.84 671.133 507.703 630.248 507.703C589.363 507.703 556.22 526.84 556.22 550.447C556.22 574.054 589.363 593.191 630.248 593.191Z" fill="#F8846B"/>
<path opacity="0.2" d="M591.868 572.609C613.068 584.842 647.429 584.842 668.629 572.609C689.829 560.377 689.829 540.517 668.629 528.285C647.429 516.053 613.068 516.036 591.868 528.285C570.668 540.534 570.668 560.36 591.868 572.609Z" fill="black"/>
<path d="M673.456 545.895C673.078 545.895 672.7 545.895 672.339 545.895C672.429 545.419 672.475 544.936 672.477 544.452C672.481 542.847 671.957 541.287 670.987 540.009C670.018 538.731 668.655 537.808 667.109 537.38C665.563 536.953 663.919 537.045 662.43 537.643C660.942 538.241 659.691 539.311 658.87 540.689C658.354 538.529 657.292 536.538 655.786 534.906C654.28 533.273 652.381 532.054 650.27 531.365C648.159 530.675 645.907 530.539 643.728 530.968C641.549 531.398 639.517 532.378 637.825 533.817C637.543 531.992 636.581 530.341 635.133 529.195C633.684 528.049 631.856 527.493 630.015 527.639C628.174 527.784 626.456 528.621 625.205 529.98C623.955 531.34 623.265 533.121 623.273 534.968C623.275 535.452 623.321 535.936 623.411 536.411C622.047 535.933 620.612 535.689 619.167 535.69C617.139 535.687 615.138 536.161 613.326 537.075C611.515 537.988 609.943 539.314 608.739 540.947C607.963 539.524 606.737 538.399 605.253 537.748C603.769 537.097 602.111 536.957 600.538 537.35C598.966 537.743 597.569 538.647 596.566 539.92C595.562 541.192 595.01 542.762 594.995 544.383C594.995 544.658 594.995 544.933 594.995 545.19C593.012 544.143 590.792 543.625 588.551 543.688C586.309 543.75 584.122 544.391 582.2 545.547C580.278 546.703 578.688 548.335 577.583 550.286C576.477 552.238 575.895 554.441 575.891 556.684C575.891 563.865 580.839 569.105 588.312 572.678C600.965 581.243 615.863 585.886 631.142 586.027C651.534 586.027 667.46 577.128 674.487 573.005C683.077 568.589 686.41 565.978 686.41 558.78C686.378 555.36 685.001 552.091 682.577 549.679C680.152 547.268 676.876 545.908 673.456 545.895Z" fill="#B16668"/>
<path d="M596.558 566.7C595.315 565.43 594.585 563.746 594.508 561.971C594.432 560.195 595.015 558.455 596.145 557.083C597.276 555.712 598.873 554.807 600.63 554.543C602.388 554.279 604.181 554.675 605.664 555.653C606.537 556.227 607.273 556.987 607.819 557.877C608.366 558.768 608.709 559.768 608.825 560.807C608.316 559.979 607.629 559.275 606.815 558.745C605.62 557.952 604.206 557.552 602.773 557.602C601.339 557.652 599.957 558.15 598.82 559.025C597.684 559.9 596.849 561.109 596.435 562.482C596.02 563.856 596.045 565.324 596.507 566.683L596.558 566.7Z" fill="#9A4A4D"/>
<path d="M628.788 567.61C628.977 565.832 629.821 564.188 631.155 562.998C632.489 561.808 634.219 561.157 636.007 561.172C637.795 561.187 639.513 561.867 640.827 563.079C642.141 564.292 642.957 565.95 643.116 567.73C643.216 568.773 643.085 569.825 642.732 570.811C642.378 571.797 641.811 572.693 641.072 573.434C641.551 571.858 641.448 570.162 640.781 568.656C640.115 567.149 638.929 565.932 637.441 565.226C635.952 564.521 634.26 564.373 632.672 564.811C631.083 565.248 629.705 566.242 628.788 567.61Z" fill="#9A4A4D"/>
<path d="M604.444 557.405C603.752 556.704 603.238 555.847 602.945 554.906C602.651 553.966 602.586 552.969 602.756 551.999C602.925 551.028 603.324 550.112 603.92 549.327C604.515 548.542 605.289 547.91 606.177 547.485C607.066 547.059 608.043 546.852 609.028 546.881C610.013 546.91 610.976 547.173 611.839 547.649C612.701 548.126 613.437 548.801 613.986 549.62C614.534 550.438 614.879 551.376 614.992 552.354C614.217 551.145 613.026 550.26 611.644 549.867C610.261 549.474 608.783 549.6 607.487 550.221C606.191 550.841 605.167 551.914 604.606 553.237C604.046 554.56 603.988 556.042 604.444 557.405Z" fill="#9A4A4D"/>
<path d="M642.068 568.366C641.514 566.928 641.516 565.336 642.074 563.899C642.632 562.463 643.707 561.287 645.086 560.602C646.466 559.916 648.052 559.77 649.534 560.193C651.016 560.615 652.287 561.575 653.098 562.886C653.58 563.643 653.889 564.498 654.002 565.389C654.115 566.28 654.029 567.186 653.751 568.04C653.646 567.213 653.359 566.421 652.909 565.72C652.249 564.683 651.28 563.877 650.14 563.418C648.999 562.958 647.743 562.866 646.548 563.156C645.353 563.446 644.278 564.102 643.475 565.034C642.671 565.965 642.18 567.124 642.068 568.349V568.366Z" fill="#9A4A4D"/>
<path d="M628.599 551.049C628.251 550.126 628.129 549.133 628.243 548.153C628.357 547.173 628.704 546.235 629.254 545.417C629.805 544.598 630.543 543.923 631.407 543.448C632.272 542.973 633.237 542.711 634.223 542.685C635.209 542.659 636.187 542.869 637.075 543.298C637.964 543.727 638.736 544.362 639.329 545.15C639.922 545.938 640.318 546.857 640.484 547.829C640.649 548.801 640.58 549.799 640.282 550.739C640.091 549.3 639.375 547.982 638.271 547.04C637.167 546.098 635.752 545.597 634.301 545.636C632.85 545.674 631.464 546.248 630.411 547.248C629.359 548.247 628.713 549.601 628.599 551.049Z" fill="#9A4A4D"/>
<path d="M638.873 546.874C638.458 545.728 638.478 544.47 638.931 543.338C639.383 542.207 640.236 541.281 641.327 540.738C642.418 540.194 643.671 540.071 644.846 540.392C646.022 540.712 647.039 541.454 647.703 542.476C648.093 543.084 648.343 543.77 648.435 544.486C648.527 545.202 648.459 545.93 648.236 546.616C648.087 545.46 647.513 544.4 646.627 543.642C645.74 542.884 644.604 542.482 643.438 542.514C642.272 542.546 641.16 543.01 640.316 543.815C639.473 544.621 638.958 545.711 638.873 546.874Z" fill="#9A4A4D"/>
<path d="M256.841 269.279C236.809 245.227 196.917 245.433 185.218 230.71C169 210.283 188.911 185.647 187.142 178.328C185.372 171.01 167.213 183.963 163.09 208.685C159.929 227.583 167.316 243.286 186.764 254.814C202.226 263.936 236.586 273.437 242.341 288.229L256.841 269.279Z" fill="#263238"/>
<path d="M450.769 365.298C457.057 395.432 447.333 413.402 441.955 445.941C440.633 453.913 437.952 487.173 438.829 505.264C453.277 517.427 467.829 526.241 461.455 533.147C457.177 537.803 444.928 538.816 426.287 529.522C420.48 526.636 415.876 523.268 414.382 520.09C412.371 515.83 409.365 504.164 408.197 494.784C402.424 448.175 402.252 424.604 402.252 424.604L450.769 365.298Z" fill="#37474F"/>
<path d="M452.779 531.755C450.848 528.423 447.808 525.875 444.189 524.557C443.639 524.351 443.107 524.849 443.742 525.227C446.614 527.284 448.597 530.354 449.291 533.817C449.824 535.673 449.704 537.597 450.133 539.435C450.563 541.273 453.208 540.741 453.775 539.315C454.054 538.786 454.19 538.194 454.17 537.597C454.229 535.561 453.749 533.546 452.779 531.755Z" fill="#263238"/>
<path d="M459.599 527.426C457.537 525.488 455.065 524.038 452.367 523.183C451.937 523.045 451.714 523.457 452.092 523.715C454.272 525.207 456.092 527.168 457.418 529.453C458.242 530.917 458.871 532.482 459.29 534.109C459.703 535.672 459.411 536.531 460.871 537.425C461.3 537.7 462.28 537.665 462.589 537.116C463.86 533.972 461.97 529.574 459.599 527.426Z" fill="#263238"/>
<path d="M300.787 278.196C307.093 308.329 297.351 326.3 291.974 358.856C290.651 366.81 286.648 396.239 287.542 414.313C299.568 426.339 318.466 438.897 312.058 445.821C307.763 450.477 294.963 451.731 276.306 442.385C270.516 439.499 265.895 436.131 264.4 432.953C262.407 428.71 261.548 417.629 260.38 408.248C254.625 361.639 252.271 337.484 252.271 337.484L300.787 278.196Z" fill="#37474F"/>
<path d="M301.286 441.938C299.597 439.394 297.151 437.447 294.294 436.372C293.898 436.217 293.246 436.492 293.727 436.922C298.881 441.457 298.211 449.738 298.073 455.82C298.074 456.097 298.148 456.369 298.286 456.61C298.424 456.85 298.623 457.05 298.862 457.191C299.101 457.331 299.373 457.407 299.65 457.411C299.928 457.414 300.201 457.345 300.444 457.211H300.65C301.159 457.03 301.61 456.716 301.957 456.302C302.304 455.889 302.535 455.39 302.626 454.858C302.798 450.494 303.519 445.838 301.286 441.938Z" fill="#263238"/>
<path d="M309.584 440.306C307.866 438.21 304.894 435.53 302.11 435.152C301.647 435.152 301.647 435.616 301.973 435.822C303.379 436.596 304.604 437.662 305.564 438.949C306.451 440.929 307.108 443.004 307.522 445.134C308.209 447.59 307.264 451.542 309.756 452.848C310.042 452.997 310.373 453.039 310.687 452.967C311.002 452.894 311.281 452.712 311.474 452.452C313.432 449.051 312.023 443.244 309.584 440.306Z" fill="#263238"/>
<path d="M287.542 414.313C284.873 414.193 282.213 414.703 279.778 415.801C277.342 416.899 275.2 418.555 273.523 420.635C273.523 420.635 283.71 416.34 292.953 419.69L293.469 419.845C291.407 418.007 289.397 416.151 287.542 414.313Z" fill="#263238"/>
<path d="M473.137 211.314C478.721 205.559 483.737 204.442 491.692 206.95C501.811 210.146 518.51 221.742 521.774 228.408C526.567 238.269 503.288 279.57 490.197 269.365C477.106 259.16 473.137 211.314 473.137 211.314Z" fill="#263238"/>
<path d="M524.883 283.229C520.056 272.389 519.145 249.574 511.912 233.906C504.68 218.237 482.328 208.325 459.427 211.95C425.875 217.275 416.735 243.389 408.059 270.138C398.937 298.245 368.167 289.655 344.287 276.254C323.86 264.778 300.925 248.234 263.541 258.112C249.694 261.789 234.816 273.128 222.739 291.184C213.547 304.928 195.955 370.006 194.838 396.514C194.168 412.44 194.838 418.711 194.838 433.537C194.838 443.003 194.838 457.589 196.78 461.919C198.274 465.08 202.896 468.447 208.685 471.333C227.326 480.645 240.142 479.391 244.42 474.769C250.794 467.897 235.624 458.62 223.512 446.68C223.065 437.695 227.034 412.32 227.034 412.32C229.095 408.231 237.685 403.953 244.351 395.69C251.45 386.925 257.649 377.469 262.854 367.463C292.06 381.688 294.482 393.113 308.982 410.602C322.383 426.768 330.749 430.256 342.311 435.135C342.311 435.135 346.332 478.085 352.104 524.608C353.255 534.006 354.114 545.07 356.107 549.33C357.602 552.509 362.653 555.223 368.253 558.453C387.409 569.517 397.7 565.153 403.146 561.889C411.392 556.976 403.816 549.726 379.248 530.639C378.355 512.548 383.853 482.397 385.193 474.426C387.237 462.176 392.322 443.141 392.322 443.141C406.857 442.729 429.191 432.249 446.646 409.004C461.008 390.02 462.108 366.913 468.121 336.848C468.619 334.34 469.117 331.694 469.839 329.117C469.839 329.117 493.891 334.924 507.635 333.825C508.648 333.721 509.645 333.618 510.641 333.429C511.564 333.321 512.473 333.12 513.355 332.828C517.169 332.021 521.671 328.499 524.488 326.678C526.745 325.237 528.802 323.504 530.604 321.524C531.138 321.02 531.643 320.487 532.116 319.926C532.206 319.874 532.281 319.799 532.332 319.708C532.384 319.617 532.41 319.515 532.408 319.411C532.511 319.411 532.511 319.411 532.614 319.307C534.785 316.659 536.577 313.722 537.94 310.58C541.565 302.231 529.694 294.087 524.883 283.229Z" fill="#455A64"/>
<path d="M395.14 557.92C393.422 555.515 389.333 552.595 386.155 553.213C385.794 553.213 386.155 553.711 386.361 553.763C391.36 555.739 394.418 562.009 393.645 567.163C393.302 569.328 396.617 567.782 397.081 566.991C398.817 564.466 396.669 560.068 395.14 557.92Z" fill="#37474F"/>
<path d="M395.741 551.736C394.814 551.736 395.432 552.715 396.033 552.801C396.635 552.887 397.425 553.918 397.751 554.296C398.89 555.294 399.879 556.452 400.689 557.732C402.066 560.372 403.215 563.125 404.125 565.961C404.881 567.816 408.283 565.961 407.939 564.243C406.977 558.642 402.012 551.581 395.741 551.736Z" fill="#37474F"/>
<path d="M225.419 465.097C225.127 464.994 224.714 465.2 224.938 465.544C226.415 467.76 227.996 469.753 229.319 472.124C230.694 474.674 231.579 477.459 231.93 480.336C231.996 480.567 232.121 480.777 232.293 480.946C232.464 481.114 232.677 481.236 232.909 481.298L233.854 481.538C234.167 481.604 234.492 481.568 234.783 481.435C235.074 481.302 235.314 481.079 235.469 480.799C238.372 474.013 231.415 467.021 225.419 465.097Z" fill="#37474F"/>
<path d="M242.908 469.598C241.09 466.734 238.294 464.628 235.04 463.671C234.61 463.585 233.751 463.826 234.249 464.41C236.354 466.749 238.133 469.361 239.541 472.175C240.262 473.687 241.018 475.267 241.619 476.831C242.221 478.394 242.186 480.181 243.939 480.92C244.289 481.061 244.678 481.071 245.035 480.948C245.392 480.825 245.692 480.577 245.88 480.25C247.632 476.9 244.729 472.45 242.908 469.598Z" fill="#37474F"/>
<path d="M468.413 335.714L440.925 336.9L411.427 327.76L389.178 304.67C389.178 317.555 399.057 343.222 424.346 351.056C449.635 358.89 465.578 351.056 465.578 351.056C466.385 346.503 467.296 341.813 468.224 336.9C468.241 336.522 468.327 336.11 468.413 335.714Z" fill="#37474F"/>
<path d="M507.325 284.879C499.182 287.473 499.543 296.235 493.959 302.609C488.376 308.982 463.035 321.592 451.129 313.81C436.028 303.983 419.398 307.161 425.48 324.977C431.561 342.793 461.798 339.133 469.873 329.169C469.873 329.169 493.925 334.976 507.669 333.876C508.683 333.773 509.679 333.67 510.675 333.481C511.598 333.373 512.508 333.171 513.39 332.88C517.204 332.072 521.705 328.55 524.522 326.729C526.78 325.289 528.836 323.556 530.639 321.575C531.172 321.072 531.677 320.538 532.15 319.978C532.241 319.925 532.315 319.85 532.367 319.76C532.418 319.669 532.444 319.566 532.442 319.462C532.546 319.462 532.546 319.462 532.649 319.359C534.819 316.71 536.612 313.773 537.974 310.632C540.792 304.086 534.264 297.695 528.955 290.016C523.303 283.848 522.409 280.034 507.325 284.879Z" fill="#F0F0F0"/>
<path d="M469.873 329.169C446.199 326.248 439.155 315.545 439.155 315.545C439.155 315.545 428.606 325.853 439.859 334.185C451.112 342.518 469.873 329.169 469.873 329.169Z" fill="#E0E0E0"/>
<path d="M469.873 329.169C454.17 337.484 430.96 331.248 417.457 319.617C406.427 310.099 401.462 295.049 404.984 277.027C404.984 277.027 391.944 279.123 388.921 288.212C386.601 297.936 388.766 315.889 403.266 329.53C416.117 341.556 447.934 356.124 467.141 342.655C467.141 342.655 473.051 338.154 469.873 329.169Z" fill="#F8846B"/>
<path d="M457.538 217.172C452.384 204.94 422.714 207.414 402.253 226.69C392.168 236.173 395.467 246.069 396.033 256.016C396.858 270.482 405.448 286.906 417.474 287.765C429.5 288.624 436.595 267.647 438.76 256.446C441.887 240.606 450.666 221.038 457.538 217.172Z" fill="#263238"/>
<path d="M528.577 322.245C524.179 322.984 515.95 317.486 513.596 313.002C513.069 311.937 512.76 310.777 512.689 309.59C512.617 308.404 512.784 307.215 513.18 306.094C513.575 304.973 514.192 303.943 514.992 303.064C515.792 302.185 516.761 301.475 517.84 300.976C522.066 299.344 530.209 297.953 534.023 299.258C537.837 300.564 540.311 306.354 539.727 309.017C538.61 314.119 534.607 321.266 528.577 322.245Z" fill="#263238"/>
<path d="M470.852 272.87C470.852 271.817 471.165 270.787 471.75 269.911C472.335 269.035 473.167 268.353 474.14 267.95C475.113 267.546 476.184 267.441 477.217 267.647C478.25 267.852 479.199 268.359 479.944 269.104C480.689 269.849 481.196 270.798 481.402 271.831C481.607 272.864 481.502 273.935 481.098 274.908C480.695 275.881 480.013 276.713 479.137 277.298C478.261 277.883 477.231 278.196 476.178 278.196C474.766 278.196 473.411 277.635 472.412 276.636C471.413 275.637 470.852 274.282 470.852 272.87Z" fill="#FAFAFA"/>
<path d="M470.732 272.011C470.732 271.128 470.994 270.264 471.485 269.529C471.976 268.795 472.673 268.222 473.489 267.884C474.306 267.546 475.204 267.458 476.07 267.63C476.937 267.802 477.733 268.228 478.357 268.852C478.982 269.477 479.407 270.273 479.58 271.14C479.752 272.006 479.664 272.904 479.326 273.72C478.987 274.537 478.415 275.234 477.68 275.725C476.946 276.216 476.082 276.478 475.199 276.478C474.014 276.478 472.878 276.007 472.04 275.169C471.203 274.332 470.732 273.196 470.732 272.011Z" fill="#263238"/>
<path d="M421.047 400.844C411.117 406.513 398.335 419.742 392.374 443.158C406.908 442.746 429.242 432.266 446.697 409.021C450.673 403.697 453.867 397.83 456.181 391.601C441.646 406.084 430.977 395.14 421.047 400.844Z" fill="#F0F0F0"/>
<path d="M392.374 443.244C405.276 442.883 424.294 434.654 440.615 416.46C439.722 417.165 423.195 431.51 413.901 431.802C404.263 432.094 402.253 424.707 403.593 417.594C398.366 425.414 394.567 434.098 392.374 443.244Z" fill="#E0E0E0"/>
<path d="M223.581 446.68C223.581 446.68 218.186 443.828 207.053 452.951C207.053 452.951 220.557 448.209 229.13 451.851C227.274 450.116 225.384 448.398 223.581 446.68Z" fill="#37474F"/>
<path d="M386 535.913C383.927 534.264 381.694 532.511 379.3 530.656C376.734 530.356 374.138 530.855 371.866 532.085C369.594 533.315 367.756 535.216 366.604 537.528C366.604 537.528 376.654 532.099 386 535.913Z" fill="#37474F"/>
<path d="M466.592 266.599C468.55 268.18 471.746 263.06 479.442 262.425C484.906 261.961 483.686 254.024 476.178 254.968C468.671 255.913 463.688 264.246 466.592 266.599Z" fill="#E0E0E0"/>
<path d="M426.064 510.246C426.064 510.246 437.489 507.463 445.701 510.899C443.502 509.181 441.2 507.274 438.829 505.35C438.829 505.264 432.575 503.993 426.064 510.246Z" fill="#263238"/>
<path d="M517.118 249.608C514.283 247.667 511.552 247.89 508.27 249.711C507.66 250.209 507.238 250.901 507.077 251.672C506.916 252.443 507.025 253.246 507.385 253.947C507.745 254.648 508.335 255.203 509.056 255.52C509.777 255.838 510.586 255.897 511.346 255.69C514.61 254.728 517.599 254.882 518.424 255.57C518.722 254.546 518.759 253.464 518.531 252.423C518.303 251.381 517.817 250.413 517.118 249.608Z" fill="#E0E0E0"/>
<path d="M510.504 263.885C510.504 262.865 510.806 261.869 511.372 261.021C511.939 260.174 512.744 259.513 513.685 259.123C514.627 258.733 515.663 258.631 516.663 258.83C517.663 259.029 518.581 259.52 519.302 260.24C520.023 260.961 520.514 261.879 520.713 262.879C520.912 263.879 520.809 264.915 520.419 265.857C520.029 266.799 519.369 267.604 518.521 268.17C517.674 268.736 516.677 269.039 515.658 269.039C514.291 269.039 512.98 268.496 512.013 267.529C511.047 266.563 510.504 265.252 510.504 263.885Z" fill="#FAFAFA"/>
<path d="M510.452 263.06C510.452 262.218 510.702 261.394 511.17 260.693C511.638 259.992 512.304 259.446 513.082 259.124C513.861 258.801 514.718 258.717 515.544 258.881C516.37 259.046 517.13 259.452 517.725 260.047C518.321 260.643 518.727 261.403 518.892 262.229C519.056 263.055 518.972 263.912 518.649 264.691C518.327 265.469 517.78 266.135 517.08 266.603C516.379 267.071 515.555 267.321 514.713 267.321C514.153 267.321 513.599 267.211 513.082 266.997C512.565 266.782 512.096 266.469 511.7 266.073C511.304 265.677 510.991 265.208 510.776 264.691C510.562 264.174 510.452 263.62 510.452 263.06Z" fill="#263238"/>
</svg>
