<svg width="500" height="500" viewBox="0 0 500 500" fill="none" xmlns="http://www.w3.org/2000/svg">
<rect width="500" height="500" fill="#E5E5E5"/>
<rect width="1920" height="3953" transform="translate(-289 -1116)" fill="#F2F2F2"/>
<rect width="1680" height="600" transform="translate(-171 -35)" fill="white"/>
<path d="M117.8 430.49C190.8 468.63 309.19 468.63 382.21 430.49C455.23 392.35 455.21 330.49 382.21 292.36C309.21 254.23 190.81 254.22 117.79 292.36C44.77 330.5 44.78 392.35 117.8 430.49Z" fill="#F0F0F0"/>
<path d="M329.49 83.82L335.12 86V73.58C335.12 63.75 342.97 61.39 351.48 66.31C360 71.22 366.9 83.18 366.9 93V94.8C368.83 94.03 371.33 94.32 374.06 95.9C380.19 99.44 385.16 108.04 385.16 115.12V116L393.01 120.53C395.137 121.918 396.906 123.788 398.176 125.987C399.446 128.187 400.181 130.654 400.32 133.19C400.32 137.85 397.04 139.74 393.01 137.41L329.49 100.7C327.358 99.3076 325.585 97.4318 324.315 95.225C323.045 93.0182 322.313 90.5428 322.18 88C322.18 83.38 325.46 81.49 329.49 83.82Z" fill="#F0F0F0"/>
<path d="M103.71 95.55H95.43V315.72H103.71V95.55Z" fill="#E6E6E6"/>
<path d="M93 84.74C89.37 86.84 89.37 90.23 93 92.33C95.0371 93.3655 97.2899 93.9052 99.575 93.9052C101.86 93.9052 104.113 93.3655 106.15 92.33C109.78 90.23 109.78 86.84 106.15 84.74C104.113 83.7045 101.86 83.1648 99.575 83.1648C97.2899 83.1648 95.0371 83.7045 93 84.74Z" fill="#E0E0E0"/>
<path d="M93.48 88C90.12 89.94 90.12 93.09 93.48 95C95.3679 95.9615 97.4564 96.4627 99.575 96.4627C101.694 96.4627 103.782 95.9615 105.67 95C109.03 93.06 109.03 89.91 105.67 88C103.781 87.0432 101.693 86.5446 99.575 86.5446C97.4573 86.5446 95.3693 87.0432 93.48 88Z" fill="#E0E0E0"/>
<path d="M108.79 89.21H90.36L91.08 92.36H108.07L108.79 89.21Z" fill="#E0E0E0"/>
<path d="M112.88 70.54H86.28L90.36 89.21C90.56 89.8845 90.8979 90.5101 91.3524 91.0472C91.8068 91.5843 92.3679 92.0211 93 92.33C95.0371 93.3655 97.2899 93.9052 99.575 93.9052C101.86 93.9052 104.113 93.3655 106.15 92.33C106.782 92.0211 107.343 91.5843 107.798 91.0472C108.252 90.5101 108.59 89.8845 108.79 89.21C108.79 89.21 112.76 70.69 112.88 70.54Z" fill="#E6E6E6"/>
<path d="M113.84 68.35C113.84 68.27 113.84 68.18 113.84 68.1L114.51 64.34H112.87C112.027 63.1822 110.937 62.2258 109.68 61.54C104.07 58.3 94.98 58.3 89.36 61.54C88.1074 62.2287 87.0217 63.1846 86.18 64.34H84.59L85.26 68.1C85.26 68.18 85.26 68.27 85.26 68.35V68.59C85.5784 69.5999 86.0965 70.5355 86.7837 71.3412C87.4709 72.1469 88.313 72.8062 89.26 73.28C94.88 76.52 103.97 76.52 109.58 73.28C110.527 72.8067 111.37 72.1475 112.057 71.3418C112.744 70.536 113.262 69.6002 113.58 68.59L113.84 68.35Z" fill="#E0E0E0"/>
<path d="M88.91 57.24C83.03 60.64 83.03 66.15 88.91 69.55C94.79 72.95 104.35 72.95 110.24 69.55C116.13 66.15 116.12 60.64 110.24 57.24C104.36 53.84 94.8 53.84 88.91 57.24Z" fill="#E6E6E6"/>
<path d="M107 73.16L104.19 93.9L103.05 94.18L104.79 73.16H107Z" fill="#E0E0E0"/>
<path d="M92.11 73.16L94.92 93.9L96.07 94.18L94.32 73.16H92.11Z" fill="#E0E0E0"/>
<path d="M122.35 337.25L132.88 331.25C132.88 331.25 145.58 302.83 143.33 278.72C140.53 248.72 126.39 238.23 118.07 241.57C109.75 244.91 111.48 256.85 120.28 272.86C127.27 285.53 131.7 319.5 122.35 337.25Z" fill="#F8846B"/>
<path opacity="0.2" d="M122.35 337.25L132.88 331.25C132.88 331.25 145.58 302.83 143.33 278.72C140.53 248.72 126.39 238.23 118.07 241.57C109.75 244.91 111.48 256.85 120.28 272.86C127.27 285.53 131.7 319.5 122.35 337.25Z" fill="black"/>
<path d="M129.24 333.91C129.164 333.923 129.086 333.923 129.01 333.91C128.864 333.846 128.749 333.728 128.689 333.58C128.629 333.433 128.63 333.267 128.69 333.12C141.41 302.4 137.88 261.82 120.98 244.51C120.924 244.454 120.88 244.388 120.849 244.315C120.819 244.242 120.804 244.164 120.804 244.085C120.804 244.006 120.819 243.928 120.849 243.855C120.88 243.782 120.924 243.716 120.98 243.66C121.035 243.604 121.1 243.56 121.172 243.53C121.244 243.5 121.322 243.484 121.4 243.484C121.478 243.484 121.556 243.5 121.628 243.53C121.7 243.56 121.765 243.604 121.82 243.66C139.02 261.28 142.67 302.46 129.82 333.57C129.767 333.677 129.684 333.767 129.581 333.827C129.478 333.888 129.359 333.916 129.24 333.91Z" fill="white"/>
<path d="M93.15 354.12C91.48 355.12 88.06 352.99 86.74 352.12C84.4907 350.585 82.6727 348.498 81.46 346.06C80.1114 343.287 79.6505 340.165 80.14 337.12C80.4076 335.513 80.7852 333.926 81.27 332.37C81.71 330.84 82.16 329.3 82.6 327.76C83.1333 326.271 83.3611 324.689 83.27 323.11C82.87 319.96 80.07 317.75 77.52 315.84C74.71 313.73 71.78 310.95 71.8 307.15C71.8 304.23 73.33 301.5 75.14 299.21C76.95 296.92 79.14 294.88 80.75 292.45C82.0393 290.758 82.7131 288.677 82.66 286.55C82.4855 285.247 82.0502 283.992 81.38 282.86C80.04 280.39 78.27 278.13 77.38 275.47C76.49 272.81 76.59 269.47 78.66 267.61C80.36 266.05 82.89 265.83 85.2 265.98C87.353 266.252 89.4227 266.981 91.27 268.12C97.27 271.47 100.74 278.61 107.14 281.19C109.6 282.19 112.31 282.41 114.88 283.09C117.45 283.77 120.07 285.09 121.26 287.46C123.61 292.15 119.26 297.93 120.9 302.9C122.37 307.31 126.65 309 129.05 312.97C130.029 314.721 130.422 316.74 130.17 318.73C129.969 322.102 129.145 325.408 127.74 328.48C126.18 331.537 124.392 334.472 122.39 337.26C122.25 337.35 93.4 354 93.15 354.12Z" fill="#F8846B"/>
<path d="M110.38 344.76H110.3C110.142 344.74 109.999 344.658 109.901 344.533C109.804 344.407 109.76 344.248 109.78 344.09C112.84 319.83 101.27 287.09 83.99 271.17C83.8878 271.059 83.831 270.914 83.8308 270.763C83.8307 270.613 83.8873 270.468 83.9894 270.357C84.0914 270.246 84.2315 270.177 84.3817 270.165C84.5319 270.153 84.6812 270.197 84.8 270.29C102.34 286.47 114.07 319.65 110.97 344.24C110.953 344.384 110.883 344.517 110.774 344.613C110.665 344.709 110.525 344.761 110.38 344.76Z" fill="white"/>
<path d="M107.38 313.28C107.25 313.28 107.124 313.238 107.02 313.16C97.72 306.16 82.93 307.45 82.78 307.46C82.7017 307.468 82.6225 307.461 82.5471 307.438C82.4717 307.415 82.4017 307.377 82.3411 307.327C82.2805 307.277 82.2306 307.215 82.1944 307.145C82.1581 307.075 82.1362 306.999 82.13 306.92C82.1161 306.762 82.165 306.606 82.2661 306.484C82.3673 306.362 82.5124 306.285 82.67 306.27C83.3 306.21 98.07 304.94 107.74 312.2C107.867 312.295 107.951 312.438 107.974 312.595C107.996 312.753 107.955 312.913 107.86 313.04C107.803 313.113 107.73 313.172 107.647 313.214C107.564 313.255 107.473 313.278 107.38 313.28Z" fill="white"/>
<path d="M105.92 307.24C105.842 307.237 105.765 307.219 105.693 307.187C105.622 307.154 105.558 307.107 105.505 307.05C105.452 306.992 105.411 306.924 105.384 306.85C105.358 306.777 105.346 306.698 105.35 306.62C105.81 294.75 114.5 287.82 114.87 287.53C114.936 287.481 115.01 287.446 115.09 287.426C115.169 287.407 115.251 287.403 115.332 287.415C115.413 287.427 115.49 287.455 115.56 287.497C115.63 287.539 115.691 287.594 115.74 287.66C115.789 287.726 115.824 287.8 115.844 287.88C115.863 287.959 115.867 288.041 115.855 288.122C115.843 288.203 115.815 288.28 115.773 288.35C115.731 288.42 115.676 288.481 115.61 288.53C115.52 288.59 106.99 295.42 106.55 306.72C106.53 306.87 106.454 307.007 106.337 307.104C106.22 307.2 106.071 307.249 105.92 307.24Z" fill="white"/>
<path d="M244.32 410.56C295.235 410.56 336.51 390.887 336.51 366.62C336.51 342.353 295.235 322.68 244.32 322.68C193.405 322.68 152.13 342.353 152.13 366.62C152.13 390.887 193.405 410.56 244.32 410.56Z" fill="#E6E6E6"/>
<path d="M343.42 383.84C358.2 390.84 382.16 390.84 396.94 383.84C411.72 376.84 411.72 365.37 396.94 358.33C382.16 351.29 358.2 351.28 343.42 358.33C328.64 365.38 328.63 376.79 343.42 383.84Z" fill="#E6E6E6"/>
<path d="M167.52 348.16C165.91 347.33 164.89 349.37 163.43 351.01C162.43 352.16 160.82 354.01 160.58 355.28C160.23 357.21 161.98 360.28 163.91 361.94C165.84 363.6 168.08 364.82 168.79 368.51C169.5 372.2 170.92 374.38 174.73 376.02C178.92 377.83 184.52 377.25 186.42 376.02C188.67 374.57 186.61 373.02 183.42 368.46C179.3 362.57 176.1 358.36 176.1 352.87L167.52 348.16Z" fill="#263238"/>
<path d="M170 343L167.42 348.3C166.7 349.328 166.415 350.598 166.629 351.835C166.842 353.072 167.537 354.174 168.56 354.9L168.66 354.97C169.685 355.587 170.894 355.825 172.076 355.642C173.258 355.459 174.339 354.868 175.13 353.97L179.66 347.84L170 343Z" fill="#FFA8A7"/>
<path d="M199.45 237C198.157 245.648 197.578 254.387 197.72 263.13C197.72 274.04 196.08 301.4 196.08 301.4C191.951 303.639 188.498 306.944 186.08 310.97C181.84 317.84 168.6 345.32 168.6 345.32C168.6 345.32 172.18 350.32 178.04 350.47C178.04 350.47 205.5 316.06 209.9 310.24C214.3 304.42 224.51 261.73 224.51 261.73L199.45 237Z" fill="#455A64"/>
<path d="M231.21 360.56L239.69 359.72L238.35 346.29L229.13 347.21L231.21 360.56Z" fill="#FFA8A7"/>
<path d="M239.24 355.17L239.1 353.85C240.02 354.15 243.21 361.33 246.84 364.74C250.84 368.47 254.38 370.82 256.15 372.5C258.53 374.75 254.25 378.2 247.77 377.75C244.56 377.52 238.87 375.82 237.29 373.89C235.71 371.96 235.29 369.3 234.05 367.89C232.81 366.48 230.31 365.23 229.53 363.54C229.11 362.62 229.34 360.04 229.33 358.19C229.33 355.83 229.67 354.68 230.33 354.67C230.33 354.87 230.5 355.84 230.5 355.84C231.486 357.059 232.897 357.86 234.45 358.08C235.93 358.21 239.67 357.78 239.24 355.17Z" fill="#263238"/>
<path d="M241.61 237L238.94 348.9C238.94 348.9 236.16 351.73 229.13 349.9C229.13 349.9 222.01 320.21 221.6 313.11C221.474 308.15 222.036 303.196 223.27 298.39L220.5 273.22L199.45 237H241.61Z" fill="#455A64"/>
<path d="M220.78 275.8C220.78 275.55 225.57 258.05 225.57 258.05C225.57 258.05 234.94 256.47 238.1 254.25C238.1 254.25 232.76 259.25 227.66 260.14L222.29 276.34L222.5 291.44L220.78 275.8Z" fill="#37474F"/>
<path d="M237.59 217.68C234.78 203.6 236.65 191.68 236.93 184.68C236.93 183.43 239.2 186.22 239.8 187.32L243.8 198.32C243.8 198.32 245.7 211 247.48 219.41C248.93 226.27 252.07 235 254.14 240.53C255.22 243.39 257.14 245.9 258.14 248.84C259.204 251.838 259.857 254.967 260.08 258.14C260.22 260.14 259.86 261.99 257.59 261.66C256.343 261.53 255.144 261.109 254.09 260.43C250.79 258.25 248.9 254.14 247.4 250.64C246.29 248.04 243.5 243.02 242.62 239.54C240.33 230.48 238.69 223.22 237.59 217.68Z" fill="#FFA8A7"/>
<path d="M227.66 179.86C234.11 179.93 240.45 181.38 242.66 188.24C244.79 194.94 247.54 214.39 247.54 214.39C247.54 214.39 244.83 217.99 235.79 217.39L227.66 179.86Z" fill="#F8846B"/>
<path opacity="0.2" d="M227.66 179.86C234.11 179.93 240.45 181.38 242.66 188.24C244.79 194.94 247.54 214.39 247.54 214.39C247.54 214.39 244.83 217.99 235.79 217.39L227.66 179.86Z" fill="black"/>
<path d="M183.92 224.2C187.35 205.84 195.24 192.87 196.47 188.28L199.89 211.69C197.499 217.589 195.446 223.618 193.74 229.75C192 236.56 190 245.13 189.91 251C189.906 252.045 190.279 253.057 190.96 253.85C192.79 255.98 193.24 257.72 194.39 260.05C195.29 261.87 196.32 262.58 196 262.97C195.587 263.381 195.034 263.621 194.452 263.641C193.869 263.661 193.301 263.461 192.86 263.08C191.866 262.267 190.97 261.34 190.19 260.32C190.336 262.623 190.849 264.889 191.71 267.03C193.66 271.93 193.05 274.37 186.61 272.4C182.61 271.17 180.14 267.68 179.9 257.86C179.748 254.241 179.852 250.615 180.21 247.01C181.43 237.78 182.88 229.76 183.92 224.2Z" fill="#FFA8A7"/>
<path d="M214.42 180.25C206.73 182.1 197.02 183.37 192.86 191.2C188.16 200.04 183.39 217.79 183.39 217.79C185.79 220.61 193.82 223.08 197.83 221.86L201.59 211.16L199.45 237C205.45 243.54 228.45 246.59 241.61 237V195.2C241.61 188.52 237.9 180.5 227.61 179.9L214.42 180.25Z" fill="#F8846B"/>
<path d="M201.59 211.16L207.27 202.12L200.9 219.4L201.59 211.16Z" fill="#F8846B"/>
<path opacity="0.2" d="M201.59 211.16L207.27 202.12L200.9 219.4L201.59 211.16Z" fill="black"/>
<path d="M207.27 157L210.11 168.22C210.406 169.388 211.083 170.425 212.033 171.166C212.984 171.906 214.155 172.309 215.36 172.31H218.69V156.67L207.27 157Z" fill="#263238"/>
<path d="M242.12 152.9C242.12 155.273 241.416 157.593 240.098 159.567C238.779 161.54 236.905 163.078 234.712 163.987C232.519 164.895 230.107 165.132 227.779 164.669C225.451 164.206 223.313 163.064 221.635 161.385C219.956 159.707 218.814 157.569 218.351 155.241C217.888 152.913 218.125 150.501 219.033 148.308C219.942 146.115 221.48 144.241 223.453 142.922C225.427 141.604 227.747 140.9 230.12 140.9C233.303 140.9 236.355 142.164 238.605 144.415C240.856 146.665 242.12 149.717 242.12 152.9Z" fill="#263238"/>
<path d="M211.53 146.07C210.84 145.988 210.141 146.065 209.485 146.295C208.83 146.526 208.236 146.904 207.75 147.4C206.13 149.06 206.46 152.13 207.75 159.19L212.75 159.77L211.53 146.07Z" fill="#263238"/>
<path d="M213.88 159.77C213.14 160.22 212.08 158.77 211.16 157.83C210.24 156.89 207.24 155.55 205.74 158.7C204.24 161.85 206.6 166.16 208.89 167.1C209.702 167.502 210.638 167.573 211.502 167.299C212.365 167.025 213.089 166.427 213.52 165.63L214.42 180.25C215.318 182.22 216.691 183.936 218.415 185.245C220.139 186.553 222.161 187.414 224.3 187.75C231.51 188.75 230.03 182.75 227.66 179.86V175.39C229.468 175.711 231.308 175.809 233.14 175.68C235.78 175.18 237.07 172.74 238.31 169.61C240.16 164.95 241.31 158.34 239.7 149.97C237.58 138.88 225.3 138.64 218.25 143.07C211.2 147.5 213.88 159.77 213.88 159.77Z" fill="#FFA8A7"/>
<path d="M213.88 161C213.51 161 212.08 158.64 211.16 157.8C209.87 156.63 211.53 146.04 211.53 146.04C212.18 137.36 224.98 136.7 228.53 136.45C236.64 135.86 242.16 140.35 239.95 146C238.49 148.57 235.49 149.28 232.68 149.62C227.91 150.2 219.79 147.62 218.77 147.5C217.39 147.31 217.1 148.65 216.35 152.31C215.69 155.56 215.14 161 213.88 161Z" fill="#263238"/>
<path d="M211.54 146.89L207 144.47C207.144 144.167 207.349 143.897 207.6 143.675C207.852 143.453 208.146 143.284 208.464 143.178C208.783 143.073 209.119 143.033 209.454 143.061C209.788 143.088 210.113 143.183 210.41 143.34C211.02 143.671 211.478 144.226 211.689 144.888C211.9 145.549 211.846 146.267 211.54 146.89Z" fill="#263238"/>
<path d="M227.65 175.39C227.65 175.39 220.96 174.05 218.65 172.81C217.276 172.093 216.15 170.977 215.42 169.61C215.774 170.976 216.396 172.257 217.25 173.38C218.96 175.56 227.67 177.17 227.67 177.17L227.65 175.39Z" fill="#F28F8F"/>
<path d="M227.86 159.53C227.86 159.885 227.719 160.226 227.468 160.478C227.216 160.729 226.875 160.87 226.52 160.87C226.165 160.87 225.824 160.729 225.572 160.478C225.321 160.226 225.18 159.885 225.18 159.53C225.176 159.351 225.208 159.173 225.273 159.006C225.339 158.84 225.436 158.688 225.561 158.56C225.686 158.431 225.835 158.329 225.999 158.258C226.164 158.188 226.341 158.151 226.52 158.15C226.699 158.153 226.875 158.19 227.039 158.261C227.203 158.332 227.351 158.434 227.476 158.562C227.6 158.691 227.698 158.842 227.764 159.008C227.83 159.174 227.863 159.351 227.86 159.53Z" fill="#263238"/>
<path d="M226.44 154.48L223.57 156.06C223.367 155.667 223.323 155.21 223.448 154.786C223.573 154.361 223.856 154.001 224.24 153.78C224.429 153.676 224.638 153.611 224.853 153.59C225.068 153.568 225.285 153.591 225.491 153.657C225.696 153.722 225.887 153.829 226.05 153.971C226.213 154.112 226.346 154.285 226.44 154.48Z" fill="#263238"/>
<path d="M227 168.48L230.06 169.63C229.992 169.834 229.883 170.022 229.741 170.184C229.598 170.345 229.425 170.476 229.231 170.569C229.037 170.662 228.827 170.716 228.612 170.726C228.397 170.737 228.182 170.704 227.98 170.63C227.573 170.465 227.245 170.15 227.062 169.75C226.88 169.35 226.858 168.896 227 168.48Z" fill="#F28F8F"/>
<path d="M239.1 155.59L236.49 153.59C236.612 153.413 236.769 153.263 236.951 153.149C237.134 153.034 237.337 152.959 237.55 152.926C237.762 152.893 237.979 152.904 238.187 152.958C238.395 153.012 238.59 153.108 238.76 153.24C239.104 153.516 239.33 153.912 239.393 154.348C239.456 154.784 239.351 155.228 239.1 155.59Z" fill="#263238"/>
<path d="M238.3 158.76C238.304 158.939 238.272 159.117 238.207 159.284C238.141 159.45 238.044 159.602 237.919 159.73C237.794 159.859 237.645 159.961 237.481 160.032C237.316 160.102 237.139 160.139 236.96 160.14C236.683 160.15 236.409 160.077 236.174 159.93C235.938 159.783 235.752 159.569 235.64 159.315C235.527 159.062 235.493 158.78 235.542 158.507C235.59 158.234 235.72 157.982 235.913 157.783C236.106 157.584 236.354 157.447 236.626 157.39C236.898 157.334 237.18 157.359 237.437 157.465C237.693 157.57 237.913 157.749 238.067 157.98C238.221 158.211 238.302 158.483 238.3 158.76Z" fill="#263238"/>
<path d="M232.69 158.99L231.43 166.95L235.84 166.43L232.69 158.99Z" fill="#F28F8F"/>
<path d="M338.26 238.38L394.21 316.69L392.43 318.51L338.26 242.5V238.38Z" fill="#263238"/>
<path d="M301.36 175C306.2 175 308.92 179.18 312.03 186.21C315.14 193.24 330.47 230.21 332.35 231.33C334.23 232.45 336.48 232.52 338.65 234.58C342.06 237.81 344.42 238.07 342.65 239.11C340.88 240.15 338.29 238.38 338.29 238.38C338.29 238.38 342.59 243.61 342.22 244.85C340.71 249.85 329.6 247.08 327.89 244.85C325.11 241.21 324.67 235.78 323.29 234.14C321.91 232.5 302.09 193.25 302.09 193.25L301.36 175Z" fill="#B16668"/>
<path d="M338.26 238.38C335.11 234.95 330.48 234.95 328.31 238.38C328.31 238.38 332.48 234.93 338.26 238.38Z" fill="#9A4A4D"/>
<path d="M327.32 221.56C327.74 222.49 323.97 235.46 323.97 235.46C323.44 235.077 322.999 234.585 322.675 234.018C322.35 233.451 322.151 232.821 322.09 232.17L325.79 218.17C326.724 219.056 327.273 220.273 327.32 221.56Z" fill="#263238"/>
<path d="M328.31 238.38L324.64 233.12L323.97 235.46L327.97 241.04C327.893 240.139 328.009 239.233 328.31 238.38Z" fill="#263238"/>
<path d="M303.93 211.46H278.66C276.859 211.46 275.132 210.745 273.859 209.471C272.585 208.198 271.87 206.471 271.87 204.67V150.9C271.87 145.747 273.917 140.805 277.561 137.161C281.205 133.517 286.147 131.47 291.3 131.47C293.851 131.47 296.377 131.973 298.734 132.949C301.091 133.926 303.232 135.357 305.036 137.162C306.839 138.966 308.269 141.108 309.245 143.465C310.22 145.823 310.721 148.349 310.72 150.9V204.67C310.72 205.562 310.544 206.445 310.203 207.268C309.862 208.092 309.362 208.841 308.731 209.471C308.101 210.102 307.352 210.602 306.528 210.943C305.705 211.284 304.822 211.46 303.93 211.46Z" fill="#263238"/>
<path d="M247 323C245.46 322.22 244.49 324.16 243.1 325.72C242.1 326.82 240.6 328.55 240.38 329.8C240.05 331.65 241.71 334.56 243.56 336.16C245.41 337.76 247.56 338.91 248.21 342.43C248.86 345.95 250.21 348.03 253.89 349.6C257.89 351.32 263.23 350.77 265.04 349.6C267.19 348.21 265.23 346.69 262.22 342.38C258.29 336.76 255.22 332.74 255.22 327.5L247 323Z" fill="#263238"/>
<path d="M250.14 318.42L246.91 323.15C246.224 324.132 245.954 325.344 246.158 326.524C246.362 327.704 247.024 328.756 248 329.45L248.1 329.51C249.083 330.096 250.242 330.317 251.372 330.135C252.502 329.952 253.532 329.377 254.28 328.51L259.28 323.02L250.14 318.42Z" fill="#F28F8F"/>
<path d="M308.14 228.66C308.34 234.66 309.41 256.66 305.01 268.19C302.573 274.74 299.509 281.039 295.86 287C294.55 289.24 256.8 326 256.8 326C256.8 326 250.39 325.53 249.38 319.32C249.38 319.32 264.84 293.02 268.19 287.63C271.54 282.24 283.4 274 283.4 274L282.32 223.45L308.14 228.66Z" fill="#F8846B"/>
<path opacity="0.2" d="M308.14 228.66C308.34 234.66 309.41 256.66 305.01 268.19C302.573 274.74 299.509 281.039 295.86 287C294.55 289.24 256.8 326 256.8 326C256.8 326 250.39 325.53 249.38 319.32C249.38 319.32 264.84 293.02 268.19 287.63C271.54 282.24 283.4 274 283.4 274L282.32 223.45L308.14 228.66Z" fill="black"/>
<path d="M301.073 354.551L309.049 352.737L306.406 341.114L298.43 342.927L301.073 354.551Z" fill="#F28F8F"/>
<path d="M294.84 247.06C297.573 244.535 300.018 241.714 302.13 238.65C308.23 230.23 307.29 222.74 307.29 222.74H304.8L271.8 223.42C268.52 228.78 267.8 236.91 268.92 244.84C271.21 261.28 284.83 289.74 284.83 289.74C284.64 291.99 283.69 301.45 285.83 309.83C289.21 323.05 298.43 345.42 298.43 345.42C298.43 345.42 304.21 346.25 307.08 342.9C307.08 342.9 301.97 297.48 300.6 285.84C299.11 273.25 294.84 247.06 294.84 247.06Z" fill="#F8846B"/>
<path opacity="0.2" d="M294.84 247.06C297.573 244.535 300.018 241.714 302.13 238.65C308.23 230.23 307.29 222.74 307.29 222.74H304.8L271.8 223.42C268.52 228.78 267.8 236.91 268.92 244.84C271.21 261.28 284.83 289.74 284.83 289.74C284.64 291.99 283.69 301.45 285.83 309.83C289.21 323.05 298.43 345.42 298.43 345.42C298.43 345.42 304.21 346.25 307.08 342.9C307.08 342.9 301.97 297.48 300.6 285.84C299.11 273.25 294.84 247.06 294.84 247.06Z" fill="black"/>
<path d="M273.53 198.65C273.87 198.07 284.11 183.71 273.58 176.31C279.17 179.31 279.46 183.37 279.46 187.36C279.46 191.06 277.93 194.17 273.53 198.65Z" fill="#F28F8F"/>
<path d="M308.16 348.79L307.9 347.65C308.74 347.81 312.32 353.76 315.9 356.34C319.79 359.17 323.17 360.85 324.9 362.12C327.22 363.83 323.9 367.33 318.13 367.64C315.29 367.79 310.13 366.93 308.52 365.41C306.91 363.89 305.77 361.41 304.52 360.31C303.27 359.21 300.69 358.31 299.83 356.87C299.35 356.11 299.28 354.21 299.33 352.58C299.38 350.95 299.43 349.44 299.94 349.46L300.14 350.33C301.642 351.096 303.315 351.465 305 351.4C306.32 351.34 308.83 351 308.16 348.79Z" fill="#263238"/>
<path d="M299.59 278.13C299.59 278.13 295.74 250.8 294.84 247.06C294.84 247.06 301.62 244.48 303.7 242.11C303.7 242.11 302.21 245.42 297.36 248.36L299.59 278.13Z" fill="#F8846B"/>
<path opacity="0.4" d="M299.59 278.13C299.59 278.13 295.74 250.8 294.84 247.06C294.84 247.06 301.62 244.48 303.7 242.11C303.7 242.11 302.21 245.42 297.36 248.36L299.59 278.13Z" fill="black"/>
<path d="M279.09 277.33C279.09 277.33 283.18 287.5 284.82 289.74C284.82 289.74 284.41 297.49 284.47 299.06L282.32 300.93C282.32 300.93 282.22 294.42 283.32 290.48" fill="#F8846B"/>
<path opacity="0.4" d="M279.09 277.33C279.09 277.33 283.18 287.5 284.82 289.74C284.82 289.74 284.41 297.49 284.47 299.06L282.32 300.93C282.32 300.93 282.22 294.42 283.32 290.48" fill="black"/>
<path d="M306.29 204.2C306.81 208.98 308.14 228.66 308.14 228.66C292.35 237.09 272.76 231.5 269.76 228.03C271.33 222.304 274.391 217.097 278.63 212.94L273.51 198.66C273.51 198.66 272.9 197.2 272.92 197.19C273.26 196.6 280.4 188.56 273.62 175.78L282.83 174.94L296.33 174.55C299.27 174.71 301.33 175 301.33 175C303.22 176.76 306.19 181.6 308.11 186.53C309.38 189.71 310.72 194.78 306.29 204.2Z" fill="#455A64"/>
<path d="M303.79 139.93C305.79 141.15 308.37 146.31 308.12 157.13C307.91 166.3 304.94 168.56 303.45 169.22C301.96 169.88 299.08 169.47 296.28 169.01V174.51C296.28 174.51 300.15 179 299.9 181.51C299.65 184.02 294.32 184.64 290.7 182.17C287.08 179.7 284.03 174.9 284.03 174.9L284.09 162.24C284.09 162.24 282.45 163.84 279.65 161.4C277.35 159.4 276.57 155.99 278.37 154.16C278.835 153.723 279.397 153.404 280.01 153.229C280.623 153.054 281.27 153.027 281.895 153.153C282.52 153.278 283.107 153.551 283.605 153.949C284.103 154.347 284.499 154.858 284.76 155.44C284.76 155.44 289.22 155.6 295.16 152.34C297.472 151.095 299.458 149.322 300.957 147.166C302.457 145.01 303.427 142.531 303.79 139.93Z" fill="#B16668"/>
<path d="M297.88 154.82C297.892 154.974 297.874 155.129 297.825 155.276C297.777 155.422 297.699 155.558 297.598 155.674C297.496 155.791 297.373 155.886 297.234 155.954C297.095 156.022 296.944 156.061 296.79 156.07C296.488 156.062 296.2 155.94 295.983 155.729C295.767 155.518 295.638 155.233 295.623 154.931C295.608 154.629 295.707 154.332 295.901 154.1C296.095 153.868 296.37 153.718 296.67 153.68C296.824 153.675 296.978 153.7 297.123 153.755C297.268 153.809 297.4 153.892 297.513 153.998C297.625 154.104 297.716 154.231 297.779 154.372C297.842 154.513 297.876 154.665 297.88 154.82Z" fill="#263238"/>
<path d="M298.19 162.6L300.87 163.45C300.828 163.633 300.748 163.806 300.636 163.958C300.523 164.109 300.381 164.235 300.218 164.329C300.055 164.423 299.874 164.482 299.687 164.503C299.499 164.524 299.31 164.506 299.13 164.45C298.76 164.329 298.454 164.066 298.278 163.719C298.102 163.372 298.07 162.97 298.19 162.6Z" fill="#9A4A4D"/>
<path d="M307.34 151.28L305 149.66C305.098 149.503 305.227 149.367 305.38 149.262C305.532 149.156 305.704 149.083 305.886 149.046C306.068 149.01 306.255 149.011 306.436 149.049C306.617 149.088 306.789 149.163 306.94 149.27C307.253 149.489 307.47 149.82 307.544 150.195C307.619 150.569 307.546 150.958 307.34 151.28Z" fill="#263238"/>
<path d="M306.8 154C306.807 154.151 306.785 154.302 306.734 154.444C306.682 154.587 306.604 154.717 306.502 154.829C306.4 154.941 306.278 155.032 306.141 155.096C306.004 155.161 305.856 155.198 305.705 155.205C305.554 155.212 305.403 155.19 305.261 155.139C305.118 155.087 304.988 155.009 304.876 154.907C304.764 154.805 304.673 154.683 304.609 154.546C304.544 154.409 304.507 154.261 304.5 154.11C304.493 153.959 304.515 153.808 304.566 153.666C304.618 153.523 304.696 153.393 304.798 153.281C304.9 153.169 305.022 153.078 305.159 153.014C305.296 152.949 305.444 152.912 305.595 152.905C305.746 152.898 305.897 152.92 306.039 152.971C306.182 153.023 306.312 153.101 306.424 153.203C306.536 153.305 306.627 153.427 306.691 153.564C306.756 153.701 306.793 153.849 306.8 154Z" fill="#263238"/>
<path d="M301.36 153.33L301.55 160.27L305.2 159.14L301.36 153.33Z" fill="#9A4A4D"/>
<path d="M296.28 169C293.33 168.61 287.28 166.87 286.28 164.47C286.657 165.683 287.397 166.751 288.4 167.53C290.21 169.08 296.24 170.83 296.24 170.83L296.28 169Z" fill="#9A4A4D"/>
<path d="M275.58 204.42L284.46 215.82L278.64 212.94L275.58 204.42Z" fill="#37474F"/>
<path d="M275 141.23L270.5 138.81C270.644 138.507 270.849 138.237 271.1 138.015C271.352 137.793 271.646 137.624 271.964 137.518C272.283 137.413 272.619 137.373 272.954 137.401C273.288 137.428 273.613 137.523 273.91 137.68C274.513 138.018 274.963 138.576 275.166 139.237C275.369 139.898 275.309 140.612 275 141.23Z" fill="#263238"/>
<path d="M272.92 197.19C272.92 197.19 266.7 212 263.53 222C261.53 228.38 258.7 236.57 259.07 242.18C259.143 243.191 259.588 244.139 260.32 244.84C262.22 246.71 262.8 248.33 264.08 250.44C265.08 252.1 266.13 252.69 265.87 253.09C265.508 253.517 264.998 253.792 264.442 253.861C263.886 253.929 263.325 253.786 262.87 253.46C261.854 252.773 260.924 251.968 260.1 251.06C260.423 253.235 261.099 255.342 262.1 257.3C264.36 261.8 261.19 263.21 257.7 262.85C253.7 262.42 251.6 259.18 250.56 249.85C250.267 246.234 250.31 242.598 250.69 238.99C251.551 231.189 252.887 223.448 254.69 215.81C257.335 204.286 260.862 192.983 265.24 182C267.08 177.6 269.75 176.27 273.62 175.76C280.88 189.05 272.92 197.19 272.92 197.19Z" fill="#B16668"/>
<path d="M260.12 251.05C258.46 250.62 256.82 249.61 256.17 251.31C255.87 252.452 255.839 253.648 256.08 254.804C256.322 255.96 256.828 257.043 257.56 257.97C259.04 259.52 263.2 260.64 264.19 259.77C265.18 258.9 263.09 251.82 260.12 251.05Z" fill="#FFA8A7"/>
<path d="M407.87 341.64C407.38 344.85 406.02 354.24 401.96 358.15C400.64 359.43 389.69 363.29 388.88 363.49C388.88 363.49 391.18 366.78 390.25 367.82C388.73 369.53 385.25 369.08 382.78 364.82C381.44 362.56 384.1 360.65 385.26 359.9C386.72 358.96 390.86 356.1 393.09 354.59C393.705 354.24 394.211 353.727 394.553 353.108C394.895 352.488 395.06 351.787 395.03 351.08L394.82 345.72L407.87 341.64Z" fill="#F8846B"/>
<path opacity="0.2" d="M407.87 341.64C407.38 344.85 406.02 354.24 401.96 358.15C400.64 359.43 389.69 363.29 388.88 363.49C388.88 363.49 391.18 366.78 390.25 367.82C388.73 369.53 385.25 369.08 382.78 364.82C381.44 362.56 384.1 360.65 385.26 359.9C386.72 358.96 390.86 356.1 393.09 354.59C393.705 354.24 394.211 353.727 394.553 353.108C394.895 352.488 395.06 351.787 395.03 351.08L394.82 345.72L407.87 341.64Z" fill="black"/>
<path d="M410.21 301.47C411.256 300.888 412.413 300.533 413.605 300.428C414.797 300.323 415.998 300.47 417.13 300.86C419.225 301.695 420.924 303.297 421.88 305.34C422.977 308.086 423.472 311.036 423.33 313.99C422.6 317.66 418.5 317.28 415.52 314.99C412.54 312.7 410.21 301.47 410.21 301.47Z" fill="#F8846B"/>
<path opacity="0.2" d="M410.21 301.47C411.256 300.888 412.413 300.533 413.605 300.428C414.797 300.323 415.998 300.47 417.13 300.86C419.225 301.695 420.924 303.297 421.88 305.34C422.977 308.086 423.472 311.036 423.33 313.99C422.6 317.66 418.5 317.28 415.52 314.99C412.54 312.7 410.21 301.47 410.21 301.47Z" fill="black"/>
<path d="M369.91 343.8C368.6 345.24 365.12 349.39 365.35 351.07C365.758 352.934 366.302 354.766 366.98 356.55C366.98 356.55 369.98 358.04 370.92 358.68C371.86 359.32 371.46 362.01 367.73 362.12C364 362.23 362.16 361.02 361.31 359.07C360.77 357.86 359.31 353.99 358.31 351.22C357.572 349.191 357.478 346.984 358.04 344.9C358.495 342.929 359.222 341.031 360.2 339.26C361.83 337 369.91 343.8 369.91 343.8Z" fill="#F8846B"/>
<path opacity="0.2" d="M369.91 343.8C368.6 345.24 365.12 349.39 365.35 351.07C365.758 352.934 366.302 354.766 366.98 356.55C366.98 356.55 369.98 358.04 370.92 358.68C371.86 359.32 371.46 362.01 367.73 362.12C364 362.23 362.16 361.02 361.31 359.07C360.77 357.86 359.31 353.99 358.31 351.22C357.572 349.191 357.478 346.984 358.04 344.9C358.495 342.929 359.222 341.031 360.2 339.26C361.83 337 369.91 343.8 369.91 343.8Z" fill="black"/>
<path d="M343.74 360.18C343.568 360.127 343.404 360.053 343.25 359.96C342.144 359.151 341.392 357.948 341.15 356.6C340.76 354.286 340.713 351.928 341.01 349.6C341.2 346.39 348.91 339.78 349.9 336.73C350.08 320.32 356.82 316.17 362.22 314.23C371.37 310.95 376.22 313.6 380.87 316.23C386.3 319.29 393.31 321.23 395.39 314.84C397.39 308.75 399.44 302.84 407.08 301.59C412.3 300.77 417.39 303.02 419.08 306.59C420.77 310.16 420.51 316.27 421.6 318.74C422.69 321.21 425.4 323.07 424.6 324.99C424.293 325.71 423.886 326.384 423.39 326.99C423.39 326.99 423.39 326.99 423.34 326.99C423.342 327.015 423.337 327.04 423.324 327.061C423.312 327.083 423.293 327.1 423.27 327.11C423.16 327.25 423.04 327.36 422.93 327.48C422.516 327.926 422.045 328.316 421.53 328.64C420.848 329.09 420.089 329.408 419.29 329.58C419.091 329.646 418.887 329.692 418.68 329.72L417.99 329.81C414.88 330.06 409.52 328.28 409.52 328.28C409.36 328.87 409.25 329.47 409.14 330.04C407.76 336.88 409.23 341.91 405.96 346.23C404.204 348.72 401.755 350.64 398.918 351.751C396.081 352.862 392.98 353.115 390 352.48C390.988 355.991 391.786 359.553 392.39 363.15C393.071 366.637 393.486 370.17 393.63 373.72C393.63 373.72 399.88 376.09 399 378.97C398.73 379.85 396.1 380.48 392.25 379.87C388.4 379.26 387.48 376.42 387.25 374.37C386.464 370.365 385.402 366.418 384.07 362.56L383.71 361.62C381.16 355.21 378.29 351.05 372.83 346.84C368 343.11 365.48 341.25 362.37 340.25C361.544 340.972 360.772 341.754 360.06 342.59C359.44 343.17 358.8 343.74 358.13 344.27C357.202 344.985 356.215 345.621 355.18 346.17C354.28 346.65 353.36 347.09 352.5 347.64C351.17 348.49 349.58 348.98 348.43 350.11C347.825 350.695 347.361 351.409 347.072 352.198C346.783 352.988 346.676 353.833 346.76 354.67C346.76 355.34 346.76 356 346.76 356.67C346.839 357.567 346.687 358.468 346.32 359.29C346.068 359.723 345.669 360.051 345.195 360.214C344.722 360.378 344.205 360.365 343.74 360.18Z" fill="#F8846B"/>
<path d="M423.33 327L423.21 327.14C423.1 327.28 422.98 327.39 422.87 327.51C422.455 327.955 421.985 328.345 421.47 328.67C420.788 329.12 420.029 329.438 419.23 329.61C419.031 329.676 418.827 329.722 418.62 329.75L417.93 329.84C414.82 330.09 409.46 328.31 409.46 328.31C409.302 328.889 409.175 329.477 409.08 330.07C407.7 336.91 409.17 341.94 405.9 346.26C404.144 348.734 401.704 350.64 398.879 351.746C396.054 352.851 392.968 353.106 390 352.48C389 344.43 398.28 341.88 401 335.26C403.05 330.26 403.13 325.38 404.75 323.75C406.37 322.12 410.39 322.55 413.3 324.61C415.75 326.33 418.58 327.77 420.46 326.56C421.17 326.1 422.77 327.45 423.25 327.01C423.31 327 423.31 327 423.33 327Z" fill="#F8846B"/>
<path opacity="0.5" d="M423.33 327L423.21 327.14C423.1 327.28 422.98 327.39 422.87 327.51C422.455 327.955 421.985 328.345 421.47 328.67C420.788 329.12 420.029 329.438 419.23 329.61C419.031 329.676 418.827 329.722 418.62 329.75L417.93 329.84C414.82 330.09 409.46 328.31 409.46 328.31C409.302 328.889 409.175 329.477 409.08 330.07C407.7 336.91 409.17 341.94 405.9 346.26C404.144 348.734 401.704 350.64 398.879 351.746C396.054 352.851 392.968 353.106 390 352.48C389 344.43 398.28 341.88 401 335.26C403.05 330.26 403.13 325.38 404.75 323.75C406.37 322.12 410.39 322.55 413.3 324.61C415.75 326.33 418.58 327.77 420.46 326.56C421.17 326.1 422.77 327.45 423.25 327.01C423.31 327 423.31 327 423.33 327Z" fill="white"/>
<path d="M409.46 328.3C406.11 328.48 394.89 324.59 395.09 315.66C394.478 315.933 393.928 316.325 393.471 316.815C393.014 317.305 392.66 317.881 392.43 318.51C392.43 318.51 393.88 329.21 408.84 331.37C409.256 330.991 409.541 330.488 409.652 329.936C409.764 329.384 409.696 328.811 409.46 328.3Z" fill="#263238"/>
<path d="M408.3 304.46C406.904 302.985 405.023 302.064 403.002 301.866C400.981 301.667 398.956 302.205 397.3 303.38C393.5 305.85 393.23 309.49 393.18 311.76C393.12 314.51 394.54 319.38 397.3 319.57C400.06 319.76 402.4 314.57 402.89 312.02C403.68 308.91 405.612 306.212 408.3 304.46Z" fill="#F8846B"/>
<path opacity="0.2" d="M408.3 304.46C406.904 302.985 405.023 302.064 403.002 301.866C400.981 301.667 398.956 302.205 397.3 303.38C393.5 305.85 393.23 309.49 393.18 311.76C393.12 314.51 394.54 319.38 397.3 319.57C400.06 319.76 402.4 314.57 402.89 312.02C403.68 308.91 405.612 306.212 408.3 304.46Z" fill="black"/>
<path d="M356.75 317.23C355.27 313.85 356.28 307 361.25 303.49C366.22 299.98 373.61 300.19 377.01 303.49C380.06 306.49 382.01 311.56 378.76 316.36C375.51 321.16 370.89 319.73 371.17 317.54C371.82 312.54 367.52 308.9 363.87 309.63C360.22 310.36 359.56 315.4 359.56 315.4C358.563 315.912 357.622 316.525 356.75 317.23Z" fill="#F8846B"/>
<path opacity="0.2" d="M356.75 317.23C355.27 313.85 356.28 307 361.25 303.49C366.22 299.98 373.61 300.19 377.01 303.49C380.06 306.49 382.01 311.56 378.76 316.36C375.51 321.16 370.89 319.73 371.17 317.54C371.82 312.54 367.52 308.9 363.87 309.63C360.22 310.36 359.56 315.4 359.56 315.4C358.563 315.912 357.622 316.525 356.75 317.23Z" fill="black"/>
<path d="M422.64 327.43C421.929 327.413 421.232 327.233 420.601 326.906C419.971 326.578 419.423 326.111 419 325.54C418.877 325.296 418.805 325.029 418.789 324.756C418.773 324.484 418.813 324.21 418.907 323.954C419.001 323.697 419.146 323.462 419.334 323.264C419.522 323.065 419.749 322.907 420 322.8C421.174 322.348 422.446 322.21 423.69 322.4C424.102 322.599 424.446 322.917 424.678 323.312C424.909 323.708 425.018 324.163 424.99 324.62C424.83 325 424 327.2 422.64 327.43Z" fill="#263238"/>
<path d="M409.69 315.47C409.718 315.167 409.857 314.885 410.082 314.68C410.307 314.474 410.601 314.36 410.905 314.36C411.209 314.36 411.503 314.474 411.728 314.68C411.953 314.885 412.092 315.167 412.12 315.47C412.135 315.639 412.115 315.809 412.061 315.97C412.007 316.13 411.92 316.278 411.806 316.403C411.692 316.528 411.552 316.628 411.397 316.697C411.242 316.765 411.075 316.8 410.905 316.8C410.735 316.8 410.568 316.765 410.413 316.697C410.258 316.628 410.118 316.528 410.004 316.403C409.89 316.278 409.803 316.13 409.749 315.97C409.695 315.809 409.675 315.639 409.69 315.47Z" fill="#263238"/>
<path d="M420.49 315.51C421.098 315.51 421.59 315.018 421.59 314.41C421.59 313.802 421.098 313.31 420.49 313.31C419.882 313.31 419.39 313.802 419.39 314.41C419.39 315.018 419.882 315.51 420.49 315.51Z" fill="#263238"/>
</svg>
