<svg width="201" height="39" viewBox="0 0 201 39" fill="none" xmlns="http://www.w3.org/2000/svg">
<path d="M63.7045 26.8588C62.2295 26.8588 60.9038 26.5277 59.7275 25.8657C58.5512 25.1852 57.6176 24.2657 56.9267 23.1071C56.2546 21.9485 55.9185 20.6336 55.9185 19.1623C55.9185 17.7095 56.2452 16.4037 56.8987 15.2451C57.5709 14.0865 58.4765 13.1762 59.6154 12.5141C60.7544 11.8337 62.0427 11.4935 63.4804 11.4935C64.7314 11.4935 65.8611 11.7601 66.8693 12.2935C67.8776 12.8084 68.6898 13.498 69.306 14.3624V6.25215C69.306 5.92112 69.4086 5.66366 69.614 5.47975C69.8194 5.27746 70.0808 5.17631 70.3982 5.17631C70.7156 5.17631 70.9771 5.27746 71.1824 5.47975C71.3878 5.66366 71.4905 5.92112 71.4905 6.25215V19.2727C71.4532 20.7071 71.0891 22.0037 70.3982 23.1623C69.7261 24.3025 68.8018 25.2036 67.6255 25.8657C66.4679 26.5277 65.1609 26.8588 63.7045 26.8588ZM63.7045 24.9278C64.7874 24.9278 65.749 24.6795 66.5892 24.1829C67.4481 23.668 68.1203 22.9784 68.6058 22.114C69.1099 21.2496 69.362 20.2657 69.362 19.1623C69.362 18.0773 69.1099 17.1026 68.6058 16.2382C68.1203 15.3555 67.4481 14.6658 66.5892 14.1693C65.749 13.6727 64.7874 13.4245 63.7045 13.4245C62.6402 13.4245 61.6786 13.6727 60.8198 14.1693C59.9609 14.6658 59.2794 15.3555 58.7752 16.2382C58.2711 17.1026 58.019 18.0773 58.019 19.1623C58.019 20.2657 58.2711 21.2496 58.7752 22.114C59.2794 22.9784 59.9609 23.668 60.8198 24.1829C61.6786 24.6795 62.6402 24.9278 63.7045 24.9278Z" fill="#F8846B"/>
<path d="M83.0864 26.8588C81.5927 26.8588 80.2577 26.5277 79.0814 25.8657C77.905 25.2036 76.9808 24.2933 76.3086 23.1347C75.6365 21.9761 75.3004 20.6611 75.3004 19.1899C75.3004 17.7003 75.6365 16.3762 76.3086 15.2175C76.9808 14.0589 77.905 13.1486 79.0814 12.4866C80.2577 11.8245 81.5927 11.4935 83.0864 11.4935C84.5801 11.4935 85.9058 11.8245 87.0634 12.4866C88.2397 13.1486 89.164 14.0589 89.8362 15.2175C90.5083 16.3762 90.8537 17.7003 90.8724 19.1899C90.8724 20.6611 90.527 21.9761 89.8362 23.1347C89.164 24.2933 88.2397 25.2036 87.0634 25.8657C85.9058 26.5277 84.5801 26.8588 83.0864 26.8588ZM83.0864 24.9278C84.1693 24.9278 85.1403 24.6795 85.9992 24.1829C86.858 23.6864 87.5302 23.0059 88.0157 22.1416C88.5011 21.2772 88.7439 20.2933 88.7439 19.1899C88.7439 18.0865 88.5011 17.1026 88.0157 16.2382C87.5302 15.3555 86.858 14.6658 85.9992 14.1693C85.1403 13.6727 84.1693 13.4245 83.0864 13.4245C82.0034 13.4245 81.0325 13.6727 80.1736 14.1693C79.3148 14.6658 78.6332 15.3555 78.1291 16.2382C77.6437 17.1026 77.4009 18.0865 77.4009 19.1899C77.4009 20.2933 77.6437 21.2772 78.1291 22.1416C78.6332 23.0059 79.3148 23.6864 80.1736 24.1829C81.0325 24.6795 82.0034 24.9278 83.0864 24.9278Z" fill="#F8846B"/>
<path d="M101.396 26.8588C99.9213 26.8588 98.6143 26.5369 97.4753 25.8933C96.3364 25.2312 95.4402 24.3209 94.7867 23.1623C94.1518 22.0037 93.8344 20.6795 93.8344 19.1899C93.8344 17.6819 94.1705 16.3486 94.8427 15.19C95.5148 14.0314 96.4391 13.1302 97.6154 12.4866C98.7917 11.8245 100.127 11.4935 101.62 11.4935C103.133 11.4935 104.468 11.8245 105.625 12.4866C106.802 13.1302 107.717 14.0314 108.37 15.19C109.042 16.3486 109.388 17.6819 109.406 19.1899L108.146 19.852C108.146 21.2129 107.857 22.4266 107.278 23.4933C106.699 24.5416 105.896 25.3691 104.869 25.976C103.861 26.5645 102.703 26.8588 101.396 26.8588ZM101.676 32.6794C100.201 32.6794 98.9037 32.4035 97.7834 31.8518C96.6631 31.3185 95.7389 30.5828 95.0107 29.6449C94.8053 29.4242 94.712 29.1852 94.7306 28.9277C94.768 28.6702 94.908 28.4587 95.1507 28.2932C95.3935 28.1277 95.6642 28.0725 95.963 28.1277C96.2617 28.1829 96.4951 28.3208 96.6631 28.5415C97.2046 29.2036 97.8955 29.7369 98.7357 30.1415C99.5946 30.5461 100.584 30.7484 101.704 30.7484C102.75 30.7484 103.693 30.5001 104.533 30.0035C105.373 29.507 106.036 28.8082 106.522 27.907C107.026 27.0059 107.278 25.9484 107.278 24.7347V20.5416L108.09 18.9416L109.406 19.1899V24.8174C109.406 26.307 109.07 27.6404 108.398 28.8174C107.726 30.0127 106.811 30.9507 105.653 31.6311C104.496 32.3299 103.17 32.6794 101.676 32.6794ZM101.62 24.9278C102.722 24.9278 103.693 24.6887 104.533 24.2105C105.392 23.714 106.064 23.0335 106.55 22.1692C107.035 21.3048 107.278 20.3117 107.278 19.1899C107.278 18.0681 107.035 17.075 106.55 16.2106C106.064 15.3279 105.392 14.6474 104.533 14.1693C103.693 13.6727 102.722 13.4245 101.62 13.4245C100.519 13.4245 99.5385 13.6727 98.6797 14.1693C97.8208 14.6474 97.1486 15.3279 96.6631 16.2106C96.1777 17.075 95.9349 18.0681 95.9349 19.1899C95.9349 20.3117 96.1777 21.3048 96.6631 22.1692C97.1486 23.0335 97.8208 23.714 98.6797 24.2105C99.5385 24.6887 100.519 24.9278 101.62 24.9278Z" fill="#F8846B"/>
<path d="M119.93 26.8588C118.455 26.8588 117.148 26.5369 116.009 25.8933C114.87 25.2312 113.974 24.3209 113.321 23.1623C112.686 22.0037 112.368 20.6795 112.368 19.1899C112.368 17.6819 112.705 16.3486 113.377 15.19C114.049 14.0314 114.973 13.1302 116.149 12.4866C117.326 11.8245 118.661 11.4935 120.154 11.4935C121.667 11.4935 123.002 11.8245 124.159 12.4866C125.336 13.1302 126.251 14.0314 126.904 15.19C127.576 16.3486 127.922 17.6819 127.94 19.1899L126.68 19.852C126.68 21.2129 126.391 22.4266 125.812 23.4933C125.233 24.5416 124.43 25.3691 123.403 25.976C122.395 26.5645 121.237 26.8588 119.93 26.8588ZM120.21 32.6794C118.735 32.6794 117.438 32.4035 116.317 31.8518C115.197 31.3185 114.273 30.5828 113.545 29.6449C113.339 29.4242 113.246 29.1852 113.265 28.9277C113.302 28.6702 113.442 28.4587 113.685 28.2932C113.927 28.1277 114.198 28.0725 114.497 28.1277C114.796 28.1829 115.029 28.3208 115.197 28.5415C115.739 29.2036 116.429 29.7369 117.27 30.1415C118.129 30.5461 119.118 30.7484 120.238 30.7484C121.284 30.7484 122.227 30.5001 123.067 30.0035C123.907 29.507 124.57 28.8082 125.056 27.907C125.56 27.0059 125.812 25.9484 125.812 24.7347V20.5416L126.624 18.9416L127.94 19.1899V24.8174C127.94 26.307 127.604 27.6404 126.932 28.8174C126.26 30.0127 125.345 30.9507 124.187 31.6311C123.03 32.3299 121.704 32.6794 120.21 32.6794ZM120.154 24.9278C121.256 24.9278 122.227 24.6887 123.067 24.2105C123.926 23.714 124.598 23.0335 125.084 22.1692C125.569 21.3048 125.812 20.3117 125.812 19.1899C125.812 18.0681 125.569 17.075 125.084 16.2106C124.598 15.3279 123.926 14.6474 123.067 14.1693C122.227 13.6727 121.256 13.4245 120.154 13.4245C119.053 13.4245 118.073 13.6727 117.214 14.1693C116.355 14.6474 115.683 15.3279 115.197 16.2106C114.712 17.075 114.469 18.0681 114.469 19.1899C114.469 20.3117 114.712 21.3048 115.197 22.1692C115.683 23.0335 116.355 23.714 117.214 24.2105C118.073 24.6887 119.053 24.9278 120.154 24.9278Z" fill="#F8846B"/>
<path d="M134.347 33.2863C134.198 33.2863 134.03 33.2495 133.843 33.1759C133.208 32.9001 133.031 32.4587 133.311 31.8518L142.357 12.2107C142.637 11.6222 143.086 11.4567 143.702 11.7141C144.337 11.9716 144.514 12.4038 144.234 13.0107L135.16 32.6518C134.973 33.0748 134.702 33.2863 134.347 33.2863ZM137.456 26.2519C137.176 26.3806 136.915 26.4082 136.672 26.3346C136.429 26.2427 136.233 26.0588 136.084 25.7829L129.838 13.0383C129.707 12.7624 129.689 12.5049 129.782 12.2659C129.876 12.0268 130.062 11.8429 130.342 11.7141C130.622 11.5854 130.884 11.567 131.126 11.659C131.369 11.7325 131.556 11.9072 131.687 12.1831L137.82 24.9278C137.97 25.2036 138.016 25.4611 137.96 25.7002C137.904 25.9392 137.736 26.1231 137.456 26.2519Z" fill="#F8846B"/>
<path d="M147.535 17.4244C147.591 16.2842 147.889 15.2635 148.431 14.3624C148.991 13.4613 149.71 12.7532 150.587 12.2383C151.484 11.7233 152.473 11.4659 153.556 11.4659C154.415 11.4659 155.078 11.5854 155.545 11.8245C156.011 12.0636 156.189 12.413 156.077 12.8728C156.002 13.1486 155.871 13.3325 155.685 13.4245C155.517 13.5164 155.302 13.5532 155.041 13.5348C154.798 13.5164 154.518 13.498 154.2 13.4796C153.155 13.3877 152.221 13.498 151.4 13.8107C150.597 14.1049 149.953 14.5647 149.467 15.19C149 15.8152 148.767 16.5601 148.767 17.4244H147.535ZM147.703 26.7208C147.367 26.7208 147.105 26.6289 146.918 26.445C146.732 26.2611 146.638 26.0036 146.638 25.6726V12.6797C146.638 12.3486 146.732 12.0912 146.918 11.9072C147.105 11.7233 147.367 11.6314 147.703 11.6314C148.039 11.6314 148.3 11.7233 148.487 11.9072C148.674 12.0912 148.767 12.3486 148.767 12.6797V25.6726C148.767 26.0036 148.674 26.2611 148.487 26.445C148.3 26.6289 148.039 26.7208 147.703 26.7208Z" fill="#F8846B"/>
<path d="M164.87 26.8588C163.358 26.8588 162.013 26.5369 160.837 25.8933C159.68 25.2312 158.765 24.3209 158.092 23.1623C157.439 22.0037 157.112 20.6795 157.112 19.1899C157.112 17.6819 157.42 16.3578 158.036 15.2175C158.671 14.0589 159.539 13.1486 160.641 12.4866C161.743 11.8245 163.012 11.4935 164.45 11.4935C165.869 11.4935 167.101 11.8153 168.147 12.459C169.211 13.0842 170.033 13.9578 170.612 15.0796C171.191 16.2014 171.48 17.4796 171.48 18.914C171.48 19.2083 171.387 19.4474 171.2 19.6313C171.013 19.7968 170.77 19.8795 170.472 19.8795H158.569V18.1141H170.696L169.491 18.9692C169.51 17.9026 169.314 16.9463 168.903 16.1003C168.492 15.2543 167.904 14.5923 167.139 14.1141C166.392 13.636 165.496 13.3969 164.45 13.3969C163.386 13.3969 162.452 13.6452 161.649 14.1417C160.847 14.6382 160.221 15.3279 159.773 16.2106C159.343 17.075 159.129 18.0681 159.129 19.1899C159.129 20.3117 159.371 21.3048 159.857 22.1692C160.361 23.0335 161.043 23.714 161.901 24.2105C162.76 24.7071 163.75 24.9553 164.87 24.9553C165.542 24.9553 166.215 24.845 166.887 24.6243C167.578 24.3852 168.128 24.091 168.539 23.7416C168.745 23.576 168.978 23.4933 169.239 23.4933C169.501 23.4749 169.725 23.5393 169.912 23.6864C170.154 23.9071 170.276 24.1462 170.276 24.4036C170.294 24.6611 170.192 24.8818 169.968 25.0657C169.351 25.5806 168.567 26.0128 167.615 26.3622C166.663 26.6932 165.748 26.8588 164.87 26.8588Z" fill="#F8846B"/>
<path d="M187.843 26.7208C187.526 26.7208 187.265 26.6197 187.059 26.4174C186.854 26.2151 186.751 25.9668 186.751 25.6726V18.5003C186.751 17.36 186.527 16.4221 186.079 15.6865C185.649 14.9509 185.052 14.3992 184.286 14.0314C183.54 13.6635 182.69 13.4796 181.738 13.4796C180.823 13.4796 179.992 13.6543 179.245 14.0038C178.517 14.3532 177.938 14.8313 177.509 15.4382C177.079 16.0451 176.865 16.7348 176.865 17.5072H175.324C175.361 16.3486 175.679 15.3187 176.276 14.4176C176.874 13.498 177.667 12.7808 178.657 12.2659C179.647 11.7325 180.748 11.4659 181.962 11.4659C183.288 11.4659 184.473 11.7417 185.519 12.2935C186.564 12.8268 187.386 13.6176 187.983 14.6658C188.6 15.7141 188.908 16.9922 188.908 18.5003V25.6726C188.908 25.9668 188.805 26.2151 188.6 26.4174C188.394 26.6197 188.142 26.7208 187.843 26.7208ZM175.8 26.7208C175.464 26.7208 175.193 26.6289 174.988 26.445C174.801 26.2427 174.708 25.9852 174.708 25.6726V12.7072C174.708 12.3762 174.801 12.1187 174.988 11.9348C175.193 11.7325 175.464 11.6314 175.8 11.6314C176.118 11.6314 176.37 11.7325 176.556 11.9348C176.762 12.1187 176.865 12.3762 176.865 12.7072V25.6726C176.865 25.9852 176.762 26.2427 176.556 26.445C176.37 26.6289 176.118 26.7208 175.8 26.7208Z" fill="#F8846B"/>
<path d="M199.236 26.7208C198.246 26.7208 197.359 26.491 196.575 26.0312C195.809 25.5714 195.202 24.9461 194.754 24.1553C194.306 23.3462 194.082 22.4266 194.082 21.3968V7.9073C194.082 7.59466 194.176 7.3372 194.362 7.1349C194.568 6.93261 194.829 6.83146 195.146 6.83146C195.464 6.83146 195.725 6.93261 195.931 7.1349C196.136 7.3372 196.239 7.59466 196.239 7.9073V21.3968C196.239 22.3347 196.519 23.1071 197.079 23.714C197.639 24.3025 198.358 24.5967 199.236 24.5967H199.992C200.29 24.5967 200.533 24.6979 200.72 24.9002C200.907 25.1025 201 25.3599 201 25.6726C201 25.9852 200.888 26.2427 200.664 26.445C200.44 26.6289 200.16 26.7208 199.824 26.7208H199.236ZM192.262 14.0314C191.982 14.0314 191.748 13.9486 191.562 13.7831C191.375 13.5992 191.281 13.3785 191.281 13.121C191.281 12.8452 191.375 12.6245 191.562 12.459C191.748 12.2751 191.982 12.1831 192.262 12.1831H199.404C199.684 12.1831 199.917 12.2751 200.104 12.459C200.29 12.6245 200.384 12.8452 200.384 13.121C200.384 13.3785 200.29 13.5992 200.104 13.7831C199.917 13.9486 199.684 14.0314 199.404 14.0314H192.262Z" fill="#F8846B"/>
<path d="M30.8295 17.1431C28.093 14.6412 24.3012 13.6958 20.6864 14.6146C17.0715 15.5334 14.2177 18.1681 13.0525 21.6617L10.2439 30.0802C9.77789 31.4768 9.78079 32.953 10.2518 34.3481C10.7229 35.7435 11.6183 36.9268 12.8411 37.7711C14.0644 38.6143 15.5 39.0382 16.9926 38.9973C18.4853 38.9564 19.8946 38.4536 21.0683 37.544L21.1468 37.4827C24.1075 35.2226 27.9174 34.2681 31.6169 34.8627C32.5712 35.016 33.5284 34.9728 34.4447 34.7399C34.9428 34.6133 35.4294 34.4302 35.8967 34.1926C37.2232 33.5173 38.2712 32.4621 38.9277 31.1407C39.5836 29.8199 39.7861 28.3572 39.513 26.9111C39.24 25.465 38.5174 24.1721 37.4232 23.1714L30.8295 17.1431Z" fill="#F8846B"/>
<path d="M9.61508 22.5253C10.875 21.6407 11.6467 20.2606 11.7878 18.6391C11.9222 17.096 11.4624 15.5094 10.4926 14.1712C9.52272 12.8341 8.14862 11.8907 6.62319 11.5142C5.02088 11.1191 3.44498 11.389 2.18761 12.274C-0.342746 14.0518 -0.736013 17.7985 1.31174 20.6277C2.94514 22.8786 5.64069 23.8765 7.94795 23.29C8.53709 23.1402 9.1009 22.8871 9.61508 22.5253Z" fill="#F8846B"/>
<path d="M17.2542 14.5474C20.7658 13.6548 22.7829 9.72256 21.7504 5.78185C20.7176 1.84017 17.0204 -0.640278 13.5088 0.252323C9.99742 1.14484 7.98088 5.07761 9.01363 9.0193C10.0461 12.96 13.7428 15.4399 17.2542 14.5474Z" fill="#F8846B"/>
<path d="M28.713 13.5075C29.2994 13.5468 29.873 13.491 30.4217 13.3515C32.9827 12.7006 34.9975 10.2302 35.2106 7.1666C35.3335 5.40302 34.8475 3.69482 33.8421 2.35703C32.79 0.95641 31.302 0.123884 29.652 0.0126343C28.0017 -0.0985311 26.4124 0.526809 25.1763 1.77303C23.9954 2.96351 23.2778 4.59051 23.1556 6.35392C22.8972 10.074 25.3902 13.2831 28.713 13.5075Z" fill="#F8846B"/>
<path d="M41.9063 9.26434L41.9051 9.26361C39.0217 8.11717 35.6 9.80148 34.2771 13.0193C32.9566 16.2379 34.2259 19.7911 37.1059 20.9397C38.1564 21.359 39.279 21.4018 40.3455 21.1307C42.2042 20.6582 43.8931 19.2323 44.7357 17.1853C46.0559 13.9668 44.7869 10.4136 41.9063 9.26434Z" fill="#F8846B"/>
</svg>
